<?xml version="1.0" encoding="UTF-8"?>
<svg id="Layer_1" data-name="Layer 1" xmlns="http://www.w3.org/2000/svg" viewBox="0 0 2869.35 2006.86">
  <defs>
    <style>
      .cls-1 {
        fill: #232020;
      }

      .cls-2 {
        fill: #ff3d00;
      }
    </style>
  </defs>
  <g>
    <path class="cls-1" d="M1420.32,758.86l-23.01,146.44c-2.33,14.8-14.58,56.04,10.08,56.04,19.93,0,22.51-26.43,24.59-39.65l26.12-162.83h73.44l-26.75,170.23c-9.72,61.85-44.88,102.03-110.45,102.03-83.93,0-80.78-63.44-73.13-112.07l25.17-160.18h73.96Z"/>
    <path class="cls-1" d="M1690.17,830.76c-9-9.52-17.71-17.45-32.93-17.45-13.11,0-21.18,7.93-23.01,19.56-3.85,31.19,80.54,24.85,68,104.67-8.31,52.87-45.13,93.57-99.68,93.57-28.32,0-55.79-12.16-74.91-30.66l40.83-52.87c9.52,9.52,19.29,17.45,33.97,17.45,11.54,0,22.84-8.46,25-22.2,6.62-35.42-80.3-26.43-67-111.02,7.97-50.75,54.26-78.24,100.94-78.24,26.75,0,48.22,6.87,67.24,22.73l-38.46,54.45Z"/>
    <path class="cls-1" d="M1864.51,599.2l-31.57,200.89h1.05c13.96-25.38,39.83-46.52,68.68-46.52,54.55,0,40.19,61.32,34.13,99.92l-27.09,172.34h-73.96l23.01-146.44c2.16-13.75,13.22-50.75-10.38-50.75-16.79,0-22.67,17.45-24.75,30.66l-26.17,166.53h-73.96l67.05-426.63h73.96Z"/>
  </g>
  <g id="Rush">
    <path class="cls-2" d="M1416.28,1286.29c0,58.69-47.57,106.27-106.26,106.27-32.4,0-61.41-14.5-80.88-37.36h0s-11.71-16.76-11.71-16.76h-.01s-120.44-172.3-120.44-172.3l-.03-.04-7.4-10.57-.03-.05c-14.06-21.87-23.26-47.33-25.91-74.99-2.16-22.5.21-44.4,6.37-64.78,5.31-17.59,13.44-34.06,23.92-48.81,5.68-8.02,12.06-15.53,19.05-22.44l.1-.1c13.43-13.51,23.4-30.81,28.05-50.73,3.06-13.14,3.55-26.28,1.77-38.88-2.08-14.87-7.29-28.99-15.1-41.49-12.43-19.95-31.44-35.79-54.84-44l-.1-.03c-3.59-1.27-7.29-2.34-11.09-3.23-.86-.2-1.72-.39-2.58-.56l-62.55-17.34-238-65.98-6.62-1.83-7.17-1.99-.06-.02-19.12-5.29h-.03c-36.54-13.95-63.97-47.62-67.95-89.19-5.61-58.42,37.21-110.32,95.63-115.93,18.27-1.75,35.9,1.23,51.67,7.95h0s22.65,13.14,22.65,13.14l378.54,219.48.12.07,7.54,4.37c40.7,25.02,70.35,66.99,78.3,117.13.55,3.45.99,6.94,1.33,10.46,2.16,22.5-.21,44.4-6.37,64.78,6.02,19.92-15.65,38.4-28.21,54.59h0c-2.71,2.91-5.25,5.95-7.61,9.13-.02.02-.04.04-.06.07-15.12,20.37-23.04,46.2-20.43,73.45,2.4,25.04,13.3,47.21,29.58,63.93l.02.02c5.01,5.15,10.53,9.78,16.47,13.81l.02.02,74.57,62.5,20.1,16.85h.01s12.96,10.88,12.96,10.88l.04.03c19.6,19.27,31.75,46.1,31.75,75.76Z"/>
    <path class="cls-2" d="M1083.54,875.32c-1.34,10.01-5.97,18.78-12.66,25.36l-15.42,9.84-16.37,10.44-51.27,32.72-7.96,5.08-19.27,12.3-129.03,82.33-26.28,16.77c-10.25,4.58-21.41,7.6-33.2,8.73-58.42,5.6-110.32-37.21-115.93-95.64-5.41-56.44,34.37-106.8,89.76-115.2l1.6-.23,128.06-18.37,59.68-8.57,7.1-1.01,15.76-2.27,68.95-9.89,13.86-1.99c1.67.03,3.36.16,5.05.38,23.97,3.22,40.79,25.26,37.57,49.22Z"/>
  </g>
</svg>